# xmcd
#
# Track frame offsets:
#   150
#   11877
#   23788
#   35936
#   48311
#   62671
#   75227
#   91531
#   104794
#   117148
#   130623
#
# Disc length: 1962 seconds
#
# Revision: 0
# Processed by: cddbd v1.5.2PL0 Copyright (c) Steve Scherf et al.
# Submitted via: GXTranscoder 2.0.1939
#
DISCID=8407a80b
DTITLE=Blaulicht - Egal
DYEAR=1900
DGENRE=Country
TTITLE0=Blue Jeans,Rock´n Roll and Elvis
TTITLE1=Ein unbekannter Stuntman
TTITLE2=Freunde
TTITLE3=Hallo guten Morgen Deutschland
TTITLE4=International Airport (Frankfurt am Main)
TTITLE5=Jeden Montag freu´n wir uns auf´s Wochenend´
TTITLE6=Junger Adler
TTITLE7=Nutz die Zeit
TTITLE8=Radwechsel
TTITLE9=Redneck Riviera
TTITLE10=112
EXTD=
EXTT0=
EXTT1=
EXTT2=
EXTT3=
EXTT4=
EXTT5=
EXTT6=
EXTT7=
EXTT8=
EXTT9=
EXTT10=
PLAYORDER=
